<?xml version="1.0" encoding="utf-8"?>
<!-- Generator: Adobe Illustrator 21.1.0, SVG Export Plug-In . SVG Version: 6.00 Build 0)  -->
<svg version="1.1" xmlns="http://www.w3.org/2000/svg" xmlns:xlink="http://www.w3.org/1999/xlink" x="0px" y="0px"
	 viewBox="0 0 235 37.1" style="enable-background:new 0 0 235 37.1;" xml:space="preserve">
<style type="text/css">
	.st0{display:none;}
	.st1{display:inline;}
	.st2{fill:#F8C024;}
</style>
<g id="Laag_1">
	<g id="prefix___02_Logo_Flightradar24_payoff" transform="translate(-2.9 -2.4)">
		<g id="prefix__Radar_xA0_Urklippsbana" transform="translate(2.917 2.4)" class="st0">
			<g id="prefix__Group_6" class="st1">
				<path id="prefix__Path_5" d="M20,4.5c-0.3,0-0.6,0.3-0.5,0.6s0.3,0.6,0.6,0.5c0.3,0,0.6-0.3,0.5-0.6c0-0.1-0.1-0.3-0.2-0.4
					C20.3,4.6,20.1,4.5,20,4.5z M9.7,11.8c-0.3,0-0.6,0.3-0.6,0.6c0,0.3,0.3,0.6,0.6,0.6s0.6-0.3,0.6-0.6c0,0,0,0,0,0
					C10.2,12,10,11.8,9.7,11.8z M7.2,24.3c0.3,0,0.6-0.3,0.6-0.6s-0.3-0.6-0.6-0.6s-0.6,0.3-0.6,0.6C6.6,24,6.9,24.3,7.2,24.3
					C7.2,24.3,7.2,24.3,7.2,24.3z M15.3,0C6.9,0,0,6.9,0,15.4c0,8.5,6.9,15.3,15.4,15.3s15.3-6.9,15.3-15.4c0-4.1-1.6-8-4.5-10.8
					C23.3,1.6,19.4,0,15.3,0z M10.1,21.7c-2.6-2.2-3.6-5.7-2.5-8.8c0.1,0.2,0.3,0.2,0.5,0.2c0.3,0,0.6-0.2,0.6-0.5
					c0-0.3-0.2-0.6-0.5-0.6c0,0,0,0,0,0C8,12,8,12,8,12C9.9,8,14.7,6.2,18.8,8.2s5.8,6.8,3.8,10.8c-0.8,1.8-2.3,3.2-4.1,4
					c0,0,0-0.1,0-0.1c0-0.3-0.3-0.5-0.6-0.5c-0.3,0-0.5,0.2-0.5,0.5c0,0.2,0.1,0.3,0.2,0.5c-0.8,0.2-1.6,0.4-2.4,0.4
					c-0.5,0-1,0-1.4-0.1l0.4-3.1c0.3,0.1,0.7,0.1,1.1,0.1c2.3,0,4.3-1.5,4.8-3.8c0.1,0.2,0.3,0.2,0.5,0.2c0.3,0,0.5-0.3,0.5-0.6
					c0-0.3-0.2-0.5-0.5-0.5c-0.1,0-0.2,0-0.3,0.1c0-0.2,0-0.3,0-0.5c0-2.8-2.2-5-5-5s-5,2.2-5,5c0,1.5,0.6,2.8,1.7,3.8L10.1,21.7z
					 M11.2,15.5c0-2.3,1.9-4.1,4.1-4.1c2.3,0,4.1,1.9,4.1,4.1s-1.9,4.1-4.1,4.1c-0.3,0-0.6,0-0.9-0.1l0.5-3.8
					c0.1,0.2,0.3,0.2,0.5,0.2c0.3,0,0.6-0.3,0.6-0.6s-0.3-0.6-0.6-0.6s-0.6,0.3-0.6,0.6c0,0.1,0,0.2,0.1,0.3l-2.3,2.9
					C11.7,17.8,11.2,16.7,11.2,15.5L11.2,15.5z M15.3,28.4c-0.7,0-1.4-0.1-2.1-0.2l0.5-3.9c0.5,0.1,1,0.1,1.6,0.1c5,0,9-4.1,9-9
					c0-5-4.1-9-9-9c-5,0-9,4.1-9,9c0,2.7,1.2,5.2,3.3,6.9l-2.5,3.1C1.5,20.9,0.7,12.7,5.3,7.2S18,0.8,23.6,5.4s6.3,12.8,1.8,18.3
					C22.9,26.7,19.2,28.4,15.3,28.4z"/>
			</g>
		</g>
		<g id="prefix__Flightradar_xA0_Urklippsbana_1_" transform="translate(38.023 7.739)">
			<g id="prefix__Group_7_1_">
				<path id="prefix__Path_6_1_" d="M16.5,1.6c-0.4,0-0.8,0.1-1,0.4c-0.3,0.3-0.4,0.7-0.4,1c0,0.4,0.2,0.8,0.4,1.1
					c0.3,0.3,0.7,0.4,1.1,0.4c0.4,0,0.8-0.2,1.1-0.4c0.3-0.3,0.4-0.7,0.4-1.1c0-0.4-0.2-0.8-0.5-1.1C17.3,1.8,16.9,1.6,16.5,1.6z
					 M27.1,7.4c-0.6-0.3-1.3-0.4-2-0.4c-0.5,0-1,0.1-1.5,0.3c-0.5,0.2-0.9,0.4-1.2,0.8c-0.4,0.3-0.7,0.7-0.9,1.2
					c-0.2,0.4-0.3,0.9-0.3,1.4h0v7.2h0c0,0.5,0.1,1,0.3,1.5c0.2,0.4,0.5,0.8,0.8,1.2c0.4,0.3,0.8,0.6,1.2,0.8c0.5,0.2,1,0.3,1.5,0.3
					c0.7,0,1.3-0.2,2-0.5v3h0v0.2c0,0.8-0.6,1.4-1.4,1.4c-0.2,0-0.4,0-0.5-0.1v2.5c0.1,0,0.2,0,0.3,0c0.1,0,0.2,0,0.3,0
					c0.5,0,1-0.1,1.5-0.3c0.5-0.2,0.9-0.5,1.2-0.8c0.4-0.3,0.7-0.7,0.9-1.2c0.2-0.5,0.4-1,0.4-1.5V7H27L27.1,7.4L27.1,7.4z
					 M26.8,17.7c0,0.2-0.1,0.4-0.1,0.5c-0.1,0.2-0.2,0.3-0.4,0.4c-0.2,0.1-0.4,0.2-0.6,0.3c-0.2,0.1-0.4,0.1-0.6,0.1
					c-0.4,0-0.7-0.1-1-0.4c-0.3-0.2-0.4-0.6-0.4-0.9v-7.2c0-0.4,0.1-0.7,0.4-1c0.3-0.3,0.6-0.4,1-0.4c0.2,0,0.4,0,0.6,0.1
					c0.2,0.1,0.4,0.2,0.6,0.3c0.2,0.1,0.3,0.3,0.4,0.4c0.1,0.2,0.1,0.3,0.1,0.5V17.7z M15.2,21.7h2.7l0.1-14.8h-2.7L15.2,21.7z
					 M6.1,0C5.6,0,5.1,0.1,4.6,0.3C4.1,0.5,3.7,0.8,3.3,1.1C2.9,1.5,2.6,1.9,2.4,2.4C2.2,2.8,2,3.3,2,3.9h0v3.7H0v2.3h2v11.7h2.7
					V9.9h2V7.6h-2V4.1h0V3.9c0-0.4,0.2-0.8,0.4-1c0.3-0.3,0.6-0.4,1-0.4c0.1,0,0.2,0,0.3,0c0.1,0,0.2,0,0.3,0.1V0L6.4,0L6.1,0z
					 M9.5,21.7h2.7V0H9.5V21.7z M41.7,9.1c-0.2-0.3-0.4-0.6-0.7-0.9c-0.4-0.4-0.8-0.6-1.3-0.8c-0.5-0.2-1-0.3-1.6-0.3
					c-0.5,0-0.9,0.1-1.3,0.2c-0.4,0.1-0.8,0.3-1.2,0.6V0h-2.7v21.6h2.7V11.4c0-0.2,0.1-0.4,0.2-0.6c0.2-0.2,0.3-0.4,0.5-0.5
					c0.2-0.1,0.5-0.3,0.7-0.3c0.2-0.1,0.5-0.1,0.7-0.1c0.2,0,0.4,0,0.6,0.1c0.2,0.1,0.4,0.2,0.6,0.3c0.2,0.1,0.3,0.3,0.4,0.5
					c0.1,0.2,0.2,0.4,0.2,0.6v10.3h2.8V11.5c0-0.5-0.1-1-0.2-1.4C42,9.8,41.9,9.4,41.7,9.1L41.7,9.1z M49.8,0h-2.7v7.6h-2V10h2v7.9
					h0c0,0.5,0.2,1,0.4,1.5c0.2,0.5,0.5,0.9,0.9,1.2c0.4,0.4,0.8,0.6,1.3,0.8c0.5,0.2,1,0.3,1.6,0.3c0.1,0,0.2,0,0.3,0s0.2,0,0.3,0
					v-2.6c-0.1,0-0.2,0.1-0.3,0.1c-0.1,0-0.2,0-0.3,0c-0.4,0-0.8-0.1-1-0.4c-0.3-0.3-0.4-0.6-0.4-1v-0.2h0V10h2V7.6h-2L49.8,0
					L49.8,0z M79,7.3c-0.6-0.3-1.3-0.5-2-0.5c-0.5,0-1.1,0.1-1.6,0.3c-0.5,0.2-0.9,0.5-1.3,0.8c-0.4,0.4-0.7,0.8-0.9,1.2
					c-0.2,0.5-0.3,1-0.3,1.5V18c0,0.5,0.1,1,0.3,1.5c0.2,0.5,0.5,0.9,0.9,1.2c0.4,0.4,0.8,0.6,1.3,0.8c0.5,0.2,1,0.3,1.5,0.3
					c0.7,0,1.4-0.2,2-0.5v0.4h2.7V0H79L79,7.3z M78.8,18.1c0,0.2-0.1,0.4-0.2,0.5c-0.1,0.2-0.3,0.3-0.4,0.4
					c-0.2,0.1-0.4,0.2-0.6,0.3c-0.2,0.1-0.4,0.1-0.6,0.1c-0.4,0-0.7-0.1-1-0.4c-0.3-0.2-0.4-0.6-0.4-1v-7.4c0-0.4,0.2-0.7,0.4-1
					c0.3-0.3,0.6-0.4,1-0.4c0.2,0,0.4,0,0.6,0.1c0.2,0.1,0.4,0.2,0.6,0.3c0.2,0.1,0.3,0.3,0.4,0.4c0.1,0.2,0.2,0.3,0.2,0.5
					L78.8,18.1z M99.1,7.3V6.9h-2.7v14.8h2.7V10.3c0.1-0.3,0.4-0.6,0.7-0.7c0.3-0.2,0.7-0.3,1-0.3c0.1,0,0.2,0,0.3,0V6.8
					C100.4,6.8,99.7,7,99.1,7.3L99.1,7.3z M90.6,7.3c-0.6-0.3-1.3-0.5-2-0.5c-0.5,0-1.1,0.1-1.5,0.3c-0.9,0.4-1.7,1.1-2.1,2
					c-0.2,0.5-0.3,1-0.3,1.5v7.4c0,0.5,0.1,1,0.3,1.5c0.2,0.5,0.5,0.9,0.9,1.2c0.4,0.4,0.8,0.6,1.3,0.8c0.5,0.2,1,0.3,1.5,0.3
					c0.7,0,1.4-0.2,2-0.4v0.4h2.7V6.9h-2.7L90.6,7.3L90.6,7.3z M90.4,17.8c0,0.2-0.1,0.4-0.2,0.5c-0.1,0.2-0.3,0.3-0.4,0.4
					c-0.2,0.1-0.4,0.2-0.6,0.3c-0.2,0.1-0.4,0.1-0.6,0.1c-0.4,0-0.7-0.1-1-0.4c-0.3-0.2-0.4-0.6-0.4-1v-7.3c0-0.4,0.2-0.7,0.4-1
					c0.3-0.3,0.6-0.4,1-0.4c0.2,0,0.4,0,0.6,0.1c0.2,0.1,0.4,0.2,0.6,0.3c0.2,0.1,0.3,0.3,0.4,0.4c0.1,0.2,0.2,0.3,0.2,0.5V17.8z
					 M57.4,6.9h-2.7v14.8h2.7V10.3c0.1-0.3,0.4-0.6,0.7-0.7c0.3-0.2,0.7-0.3,1-0.3c0.1,0,0.2,0,0.3,0V6.8c-0.7,0-1.4,0.2-2,0.5
					L57.4,6.9L57.4,6.9z M67.7,7.3c-0.6-0.3-1.3-0.5-2-0.5c-0.5,0-1.1,0.1-1.5,0.3c-0.9,0.4-1.7,1.1-2.1,2c-0.2,0.5-0.3,1-0.3,1.5
					v7.4c0,0.5,0.1,1,0.3,1.5c0.2,0.5,0.5,0.9,0.9,1.2c0.4,0.4,0.8,0.6,1.3,0.8c0.5,0.2,1,0.3,1.5,0.3c0.7,0,1.4-0.2,2-0.4v0.4h2.7
					V6.9h-2.7L67.7,7.3L67.7,7.3z M67.5,17.8c0,0.2-0.1,0.4-0.2,0.5c-0.1,0.2-0.3,0.3-0.4,0.4c-0.2,0.1-0.4,0.2-0.6,0.3
					c-0.2,0.1-0.4,0.1-0.6,0.1c-0.4,0-0.7-0.1-1-0.4c-0.3-0.2-0.4-0.6-0.4-1v-7.3c0-0.4,0.2-0.7,0.4-1c0.3-0.3,0.6-0.4,1-0.4
					c0.2,0,0.4,0,0.6,0.1c0.2,0.1,0.4,0.2,0.6,0.3c0.2,0.1,0.3,0.3,0.4,0.4c0.1,0.2,0.2,0.3,0.2,0.5V17.8z"/>
			</g>
		</g>
		<g id="prefix__Flightradar_xA0_Urklippsbana" transform="translate(38.023 7.739)">
			<g id="prefix__Group_7">
				<path id="prefix__Path_6" class="st2" d="M128.8,7.3c-0.6-0.3-1.3-0.5-2-0.5c-0.5,0-1.1,0.1-1.6,0.3c-0.5,0.2-0.9,0.5-1.3,0.8
					c-0.4,0.4-0.7,0.8-0.9,1.2c-0.2,0.5-0.3,1-0.3,1.5V18c0,0.5,0.1,1,0.3,1.5c0.2,0.5,0.5,0.9,0.9,1.2c0.4,0.4,0.8,0.6,1.3,0.8
					c0.5,0.2,1,0.3,1.5,0.3c0.7,0,1.4-0.2,2-0.5v0.4h2.7V0h-2.7L128.8,7.3z M128.6,18.1c0,0.2-0.1,0.4-0.2,0.5
					c-0.1,0.2-0.3,0.3-0.4,0.4c-0.2,0.1-0.4,0.2-0.6,0.3c-0.2,0.1-0.4,0.1-0.6,0.1c-0.4,0-0.7-0.1-1-0.4c-0.3-0.2-0.4-0.6-0.4-1
					v-7.4c0-0.4,0.2-0.7,0.4-1c0.3-0.3,0.6-0.4,1-0.4c0.2,0,0.4,0,0.6,0.1c0.2,0.1,0.4,0.2,0.6,0.3c0.2,0.1,0.3,0.3,0.4,0.4
					c0.1,0.2,0.2,0.3,0.2,0.5L128.6,18.1z M148.9,7.3V6.9h-2.7v14.8h2.7V10.3c0.1-0.3,0.4-0.6,0.7-0.7c0.3-0.2,0.7-0.3,1-0.3
					c0.1,0,0.2,0,0.3,0V6.8C150.2,6.8,149.5,7,148.9,7.3L148.9,7.3z M140.4,7.3c-0.6-0.3-1.3-0.5-2-0.5c-0.5,0-1.1,0.1-1.5,0.3
					c-0.9,0.4-1.7,1.1-2.1,2c-0.2,0.5-0.3,1-0.3,1.5v7.4c0,0.5,0.1,1,0.3,1.5c0.2,0.5,0.5,0.9,0.9,1.2c0.4,0.4,0.8,0.6,1.3,0.8
					c0.5,0.2,1,0.3,1.5,0.3c0.7,0,1.4-0.2,2-0.4v0.4h2.7V6.9h-2.7L140.4,7.3L140.4,7.3z M140.2,17.8c0,0.2-0.1,0.4-0.2,0.5
					c-0.1,0.2-0.3,0.3-0.4,0.4c-0.2,0.1-0.4,0.2-0.6,0.3c-0.2,0.1-0.4,0.1-0.6,0.1c-0.4,0-0.7-0.1-1-0.4c-0.3-0.2-0.4-0.6-0.4-1
					v-7.3c0-0.4,0.2-0.7,0.4-1c0.3-0.3,0.6-0.4,1-0.4c0.2,0,0.4,0,0.6,0.1c0.2,0.1,0.4,0.2,0.6,0.3c0.2,0.1,0.3,0.3,0.4,0.4
					c0.1,0.2,0.2,0.3,0.2,0.5V17.8z M107.2,6.9h-2.7v14.8h2.7V10.3c0.1-0.3,0.4-0.6,0.7-0.7c0.3-0.2,0.7-0.3,1-0.3
					c0.1,0,0.2,0,0.3,0V6.8c-0.7,0-1.4,0.2-2,0.5L107.2,6.9L107.2,6.9z M117.5,7.3c-0.6-0.3-1.3-0.5-2-0.5c-0.5,0-1.1,0.1-1.5,0.3
					c-0.9,0.4-1.7,1.1-2.1,2c-0.2,0.5-0.3,1-0.3,1.5v7.4c0,0.5,0.1,1,0.3,1.5c0.2,0.5,0.5,0.9,0.9,1.2c0.4,0.4,0.8,0.6,1.3,0.8
					c0.5,0.2,1,0.3,1.5,0.3c0.7,0,1.4-0.2,2-0.4v0.4h2.7V6.9h-2.7L117.5,7.3L117.5,7.3z M117.3,17.8c0,0.2-0.1,0.4-0.2,0.5
					c-0.1,0.2-0.3,0.3-0.4,0.4c-0.2,0.1-0.4,0.2-0.6,0.3c-0.2,0.1-0.4,0.1-0.6,0.1c-0.4,0-0.7-0.1-1-0.4c-0.3-0.2-0.4-0.6-0.4-1
					v-7.3c0-0.4,0.2-0.7,0.4-1c0.3-0.3,0.6-0.4,1-0.4c0.2,0,0.4,0,0.6,0.1c0.2,0.1,0.4,0.2,0.6,0.3c0.2,0.1,0.3,0.3,0.4,0.4
					c0.1,0.2,0.2,0.3,0.2,0.5V17.8z"/>
			</g>
		</g>
	</g>
</g>
<g id="Laag_2">
	<g>
		<path d="M15.4,2.3c7.2,0,13,5.8,13,13s-5.8,13-13,13s-13-5.8-13-13S8.2,2.3,15.4,2.3 M15.4,0C6.9,0,0,6.9,0,15.3
			s6.9,15.3,15.3,15.3s15.3-6.9,15.3-15.3S23.9,0,15.4,0L15.4,0z"/>
	</g>
	<g>
		<path d="M15.4,7.2c4.5,0,8.1,3.6,8.1,8.1s-3.6,8.1-8.1,8.1s-8.1-3.6-8.1-8.1S10.9,7.2,15.4,7.2 M15.4,6.2c-5,0-9.1,4.1-9.1,9.1
			s4.1,9.1,9.1,9.1s9.1-4.1,9.1-9.1S20.4,6.2,15.4,6.2L15.4,6.2z"/>
	</g>
	<g>
		<path d="M15.4,11.3c2.2,0,4,1.8,4,4s-1.8,4-4,4s-4-1.8-4-4S13.2,11.3,15.4,11.3 M15.4,10.3c-2.8,0-5,2.2-5,5s2.2,5,5,5s5-2.2,5-5
			S18.1,10.3,15.4,10.3L15.4,10.3z"/>
	</g>
	<g>
		<path d="M15.4,14.9c-0.2,0-0.4,0.2-0.4,0.4s0.2,0.4,0.4,0.4s0.4-0.2,0.4-0.4S15.6,14.9,15.4,14.9L15.4,14.9z"/>
	</g>
	<g>
		<path d="M20,4.4c-0.3,0-0.6,0.3-0.6,0.6c0,0.3,0.3,0.6,0.6,0.6s0.6-0.3,0.6-0.6C20.6,4.7,20.3,4.4,20,4.4L20,4.4z"/>
	</g>
	<g>
		<path d="M9.7,11.9c-0.2,0-0.4,0.2-0.4,0.4s0.2,0.4,0.4,0.4s0.4-0.2,0.4-0.4S9.9,11.9,9.7,11.9L9.7,11.9z"/>
	</g>
	<g>
		<path d="M20.6,15.9c-0.3,0-0.6,0.3-0.6,0.6s0.3,0.6,0.6,0.6s0.6-0.3,0.6-0.6S20.9,15.9,20.6,15.9L20.6,15.9z"/>
	</g>
	<g>
		<path d="M18,22.1c-0.3,0-0.6,0.3-0.6,0.6s0.3,0.6,0.6,0.6s0.6-0.3,0.6-0.6S18.3,22.1,18,22.1L18,22.1z"/>
	</g>
	<g>
		<path d="M7.2,23.2c-0.2,0-0.4,0.2-0.4,0.4s0.2,0.4,0.4,0.4s0.4-0.2,0.4-0.4S7.4,23.2,7.2,23.2L7.2,23.2z"/>
	</g>
	<g>
		<path d="M8.1,12c-0.3,0-0.5,0.2-0.5,0.5s0.2,0.5,0.5,0.5s0.5-0.2,0.5-0.5S8.4,12,8.1,12L8.1,12z"/>
	</g>
</g>
</svg>
